<svg width="128" height="128" viewBox="0 0 128 128" fill="none" xmlns="http://www.w3.org/2000/svg">
<rect width="128" height="128" rx="24" fill="#F6F7FB"/>
<path d="M31.1435 82.8V94H29.4315L23.2555 86.416V94H21.1915V82.8H22.9035L29.0795 90.384V82.8H31.1435ZM33.9526 85.456H35.9526V94H33.9526V85.456ZM34.9606 84.048C34.598 84.048 34.294 83.936 34.0486 83.712C33.8033 83.4773 33.6806 83.1893 33.6806 82.848C33.6806 82.5067 33.8033 82.224 34.0486 82C34.294 81.7653 34.598 81.648 34.9606 81.648C35.3233 81.648 35.6273 81.76 35.8726 81.984C36.118 82.1973 36.2406 82.4693 36.2406 82.8C36.2406 83.152 36.118 83.4507 35.8726 83.696C35.638 83.9307 35.334 84.048 34.9606 84.048ZM47.0576 85.456V92.704C47.0576 95.712 45.5216 97.216 42.4496 97.216C41.6283 97.216 40.8496 97.1093 40.1136 96.896C39.3776 96.6933 38.7696 96.3947 38.2896 96L39.1856 94.496C39.559 94.8053 40.0283 95.0507 40.5936 95.232C41.1696 95.424 41.751 95.52 42.3376 95.52C43.2763 95.52 43.9643 95.3067 44.4016 94.88C44.839 94.4533 45.0576 93.8027 45.0576 92.928V92.48C44.7163 92.8533 44.3003 93.136 43.8096 93.328C43.319 93.52 42.7803 93.616 42.1936 93.616C41.383 93.616 40.647 93.4453 39.9856 93.104C39.335 92.752 38.8176 92.2613 38.4336 91.632C38.0603 91.0027 37.8736 90.2827 37.8736 89.472C37.8736 88.6613 38.0603 87.9467 38.4336 87.328C38.8176 86.6987 39.335 86.2133 39.9856 85.872C40.647 85.5307 41.383 85.36 42.1936 85.36C42.8123 85.36 43.3723 85.4613 43.8736 85.664C44.3856 85.8667 44.8123 86.176 45.1536 86.592V85.456H47.0576ZM42.4976 91.92C43.255 91.92 43.8736 91.696 44.3536 91.248C44.8443 90.7893 45.0896 90.1973 45.0896 89.472C45.0896 88.7573 44.8443 88.176 44.3536 87.728C43.8736 87.28 43.255 87.056 42.4976 87.056C41.7296 87.056 41.1003 87.28 40.6096 87.728C40.1296 88.176 39.8896 88.7573 39.8896 89.472C39.8896 90.1973 40.1296 90.7893 40.6096 91.248C41.1003 91.696 41.7296 91.92 42.4976 91.92ZM54.535 85.36C55.6123 85.36 56.4763 85.6747 57.127 86.304C57.7777 86.9333 58.103 87.8667 58.103 89.104V94H56.103V89.36C56.103 88.6133 55.927 88.0533 55.575 87.68C55.223 87.296 54.7217 87.104 54.071 87.104C53.335 87.104 52.7537 87.328 52.327 87.776C51.9003 88.2133 51.687 88.848 51.687 89.68V94H49.687V82.128H51.687V86.448C52.0177 86.096 52.423 85.8293 52.903 85.648C53.3937 85.456 53.9377 85.36 54.535 85.36ZM65.7761 93.536C65.5415 93.728 65.2535 93.872 64.9121 93.968C64.5815 94.064 64.2295 94.112 63.8561 94.112C62.9175 94.112 62.1921 93.8667 61.6801 93.376C61.1681 92.8853 60.9121 92.1707 60.9121 91.232V87.12H59.5041V85.52H60.9121V83.568H62.9121V85.52H65.2001V87.12H62.9121V91.184C62.9121 91.6 63.0135 91.92 63.2161 92.144C63.4188 92.3573 63.7121 92.464 64.0961 92.464C64.5441 92.464 64.9175 92.3467 65.2161 92.112L65.7761 93.536ZM77.2193 94.16C76.0886 94.16 75.0646 93.9147 74.1473 93.424C73.2406 92.9227 72.5259 92.2347 72.0033 91.36C71.4913 90.4853 71.2353 89.4987 71.2353 88.4C71.2353 87.3013 71.4966 86.3147 72.0193 85.44C72.5419 84.5653 73.2566 83.8827 74.1633 83.392C75.0806 82.8907 76.1046 82.64 77.2353 82.64C78.1526 82.64 78.9899 82.8 79.7473 83.12C80.5046 83.44 81.1446 83.904 81.6673 84.512L80.3233 85.776C79.5126 84.9013 78.5153 84.464 77.3313 84.464C76.5633 84.464 75.8753 84.6347 75.2673 84.976C74.6593 85.3067 74.1846 85.7707 73.8433 86.368C73.5019 86.9653 73.3313 87.6427 73.3313 88.4C73.3313 89.1573 73.5019 89.8347 73.8433 90.432C74.1846 91.0293 74.6593 91.4987 75.2673 91.84C75.8753 92.1707 76.5633 92.336 77.3313 92.336C78.5153 92.336 79.5126 91.8933 80.3233 91.008L81.6673 92.288C81.1446 92.896 80.4993 93.36 79.7313 93.68C78.9739 94 78.1366 94.16 77.2193 94.16ZM86.6541 85.36C87.9128 85.36 88.8728 85.664 89.5341 86.272C90.2061 86.8693 90.5421 87.776 90.5421 88.992V94H88.6541V92.96C88.4088 93.3333 88.0568 93.6213 87.5981 93.824C87.1501 94.016 86.6061 94.112 85.9661 94.112C85.3261 94.112 84.7661 94.0053 84.2861 93.792C83.8061 93.568 83.4328 93.264 83.1661 92.88C82.9101 92.4853 82.7821 92.0427 82.7821 91.552C82.7821 90.784 83.0648 90.1707 83.6301 89.712C84.2061 89.2427 85.1075 89.008 86.3341 89.008H88.5421V88.88C88.5421 88.2827 88.3608 87.824 87.9981 87.504C87.6461 87.184 87.1181 87.024 86.4141 87.024C85.9341 87.024 85.4595 87.0987 84.9901 87.248C84.5315 87.3973 84.1421 87.6053 83.8221 87.872L83.0381 86.416C83.4861 86.0747 84.0248 85.8133 84.6541 85.632C85.2835 85.4507 85.9501 85.36 86.6541 85.36ZM86.3821 92.656C86.8835 92.656 87.3261 92.544 87.7101 92.32C88.1048 92.0853 88.3821 91.7547 88.5421 91.328V90.336H86.4781C85.3261 90.336 84.7501 90.7147 84.7501 91.472C84.7501 91.8347 84.8941 92.1227 85.1821 92.336C85.4701 92.5493 85.8701 92.656 86.3821 92.656ZM95.0129 86.704C95.5889 85.808 96.6022 85.36 98.0529 85.36V87.264C97.8822 87.232 97.7275 87.216 97.5889 87.216C96.8102 87.216 96.2022 87.4453 95.7649 87.904C95.3275 88.352 95.1089 89.0027 95.1089 89.856V94H93.1089V85.456H95.0129V86.704ZM107.703 89.776C107.703 89.9147 107.693 90.112 107.671 90.368H100.967C101.085 90.9973 101.389 91.4987 101.879 91.872C102.381 92.2347 102.999 92.416 103.735 92.416C104.674 92.416 105.447 92.1067 106.055 91.488L107.127 92.72C106.743 93.1787 106.258 93.5253 105.671 93.76C105.085 93.9947 104.423 94.112 103.687 94.112C102.749 94.112 101.922 93.9253 101.207 93.552C100.493 93.1787 99.938 92.6613 99.5434 92C99.1594 91.328 98.9674 90.5707 98.9674 89.728C98.9674 88.896 99.154 88.1493 99.5274 87.488C99.9114 86.816 100.439 86.2933 101.111 85.92C101.783 85.5467 102.541 85.36 103.383 85.36C104.215 85.36 104.957 85.5467 105.607 85.92C106.269 86.2827 106.781 86.8 107.143 87.472C107.517 88.1333 107.703 88.9013 107.703 89.776ZM103.383 86.96C102.743 86.96 102.199 87.152 101.751 87.536C101.314 87.9093 101.047 88.4107 100.951 89.04H105.799C105.714 88.4213 105.453 87.92 105.015 87.536C104.578 87.152 104.034 86.96 103.383 86.96Z" fill="#1A202C"/>
<path d="M76 45.0811C75.7898 47.3555 74.9362 49.523 73.5391 51.3301C72.142 53.1371 70.2591 54.5088 68.1109 55.2848C65.9626 56.0608 63.6378 56.2089 61.4084 55.7118C59.179 55.2147 57.1373 54.0929 55.5222 52.4778C53.9071 50.8627 52.7853 48.821 52.2882 46.5916C51.7911 44.3622 51.9392 42.0374 52.7152 39.8891C53.4912 37.7409 54.8629 35.858 56.6699 34.4609C58.477 33.0638 60.6445 32.2102 62.9189 32C61.5873 33.8015 60.9465 36.0211 61.1131 38.2552C61.2797 40.4892 62.2426 42.5892 63.8267 44.1733C65.4108 45.7574 67.5108 46.7203 69.7448 46.8869C71.9789 47.0535 74.1985 46.0252 76 44.6936V45.0811Z" stroke="#00CC96" stroke-width="2.5" stroke-linecap="round" stroke-linejoin="round"/>
</svg>
