<svg width="128" height="128" viewBox="0 0 128 128" fill="none" xmlns="http://www.w3.org/2000/svg">
<rect width="128" height="128" rx="24" fill="#F6F7FB"/>
<path d="M38.0134 92.256V94H29.6134V82.8H37.7894V84.544H31.6934V87.456H37.1014V89.168H31.6934V92.256H38.0134ZM48.0308 85.456L44.0308 94.688C43.6574 95.616 43.2041 96.2667 42.6708 96.64C42.1374 97.024 41.4921 97.216 40.7348 97.216C40.3081 97.216 39.8868 97.1467 39.4708 97.008C39.0548 96.8693 38.7134 96.6773 38.4467 96.432L39.2467 94.96C39.4388 95.1413 39.6628 95.2853 39.9188 95.392C40.1854 95.4987 40.4521 95.552 40.7188 95.552C41.0708 95.552 41.3588 95.4613 41.5828 95.28C41.8174 95.0987 42.0308 94.7947 42.2228 94.368L42.3668 94.032L38.6387 85.456H40.7188L43.4068 91.776L46.1108 85.456H48.0308ZM57.0784 89.776C57.0784 89.9147 57.0677 90.112 57.0464 90.368H50.3424C50.4597 90.9973 50.7637 91.4987 51.2544 91.872C51.7557 92.2347 52.3744 92.416 53.1104 92.416C54.049 92.416 54.8224 92.1067 55.4304 91.488L56.5024 92.72C56.1184 93.1787 55.633 93.5253 55.0464 93.76C54.4597 93.9947 53.7984 94.112 53.0624 94.112C52.1237 94.112 51.297 93.9253 50.5824 93.552C49.8677 93.1787 49.313 92.6613 48.9184 92C48.5344 91.328 48.3424 90.5707 48.3424 89.728C48.3424 88.896 48.529 88.1493 48.9024 87.488C49.2864 86.816 49.8144 86.2933 50.4864 85.92C51.1584 85.5467 51.9157 85.36 52.7584 85.36C53.5904 85.36 54.3317 85.5467 54.9824 85.92C55.6437 86.2827 56.1557 86.8 56.5184 87.472C56.8917 88.1333 57.0784 88.9013 57.0784 89.776ZM52.7584 86.96C52.1184 86.96 51.5744 87.152 51.1264 87.536C50.689 87.9093 50.4224 88.4107 50.3264 89.04H55.1744C55.089 88.4213 54.8277 87.92 54.3904 87.536C53.953 87.152 53.409 86.96 52.7584 86.96ZM68.7974 94.16C67.6667 94.16 66.6427 93.9147 65.7254 93.424C64.8187 92.9227 64.104 92.2347 63.5814 91.36C63.0694 90.4853 62.8134 89.4987 62.8134 88.4C62.8134 87.3013 63.0747 86.3147 63.5974 85.44C64.12 84.5653 64.8347 83.8827 65.7414 83.392C66.6587 82.8907 67.6827 82.64 68.8134 82.64C69.7307 82.64 70.568 82.8 71.3254 83.12C72.0827 83.44 72.7227 83.904 73.2454 84.512L71.9014 85.776C71.0907 84.9013 70.0934 84.464 68.9094 84.464C68.1414 84.464 67.4534 84.6347 66.8454 84.976C66.2374 85.3067 65.7627 85.7707 65.4214 86.368C65.08 86.9653 64.9094 87.6427 64.9094 88.4C64.9094 89.1573 65.08 89.8347 65.4214 90.432C65.7627 91.0293 66.2374 91.4987 66.8454 91.84C67.4534 92.1707 68.1414 92.336 68.9094 92.336C70.0934 92.336 71.0907 91.8933 71.9014 91.008L73.2454 92.288C72.7227 92.896 72.0774 93.36 71.3094 93.68C70.552 94 69.7147 94.16 68.7974 94.16ZM78.2323 85.36C79.4909 85.36 80.4509 85.664 81.1123 86.272C81.7843 86.8693 82.1203 87.776 82.1203 88.992V94H80.2323V92.96C79.9869 93.3333 79.6349 93.6213 79.1763 93.824C78.7283 94.016 78.1843 94.112 77.5443 94.112C76.9043 94.112 76.3443 94.0053 75.8643 93.792C75.3843 93.568 75.0109 93.264 74.7443 92.88C74.4883 92.4853 74.3603 92.0427 74.3603 91.552C74.3603 90.784 74.6429 90.1707 75.2083 89.712C75.7843 89.2427 76.6856 89.008 77.9123 89.008H80.1203V88.88C80.1203 88.2827 79.9389 87.824 79.5763 87.504C79.2243 87.184 78.6963 87.024 77.9923 87.024C77.5123 87.024 77.0376 87.0987 76.5683 87.248C76.1096 87.3973 75.7203 87.6053 75.4003 87.872L74.6163 86.416C75.0643 86.0747 75.6029 85.8133 76.2323 85.632C76.8616 85.4507 77.5283 85.36 78.2323 85.36ZM77.9603 92.656C78.4616 92.656 78.9043 92.544 79.2883 92.32C79.6829 92.0853 79.9603 91.7547 80.1203 91.328V90.336H78.0563C76.9043 90.336 76.3283 90.7147 76.3283 91.472C76.3283 91.8347 76.4723 92.1227 76.7603 92.336C77.0483 92.5493 77.4483 92.656 77.9603 92.656ZM86.591 86.704C87.167 85.808 88.1803 85.36 89.631 85.36V87.264C89.4603 87.232 89.3057 87.216 89.167 87.216C88.3883 87.216 87.7803 87.4453 87.343 87.904C86.9057 88.352 86.687 89.0027 86.687 89.856V94H84.687V85.456H86.591V86.704ZM99.2815 89.776C99.2815 89.9147 99.2708 90.112 99.2495 90.368H92.5455C92.6628 90.9973 92.9668 91.4987 93.4575 91.872C93.9588 92.2347 94.5775 92.416 95.3135 92.416C96.2522 92.416 97.0255 92.1067 97.6335 91.488L98.7055 92.72C98.3215 93.1787 97.8362 93.5253 97.2495 93.76C96.6628 93.9947 96.0015 94.112 95.2655 94.112C94.3268 94.112 93.5002 93.9253 92.7855 93.552C92.0708 93.1787 91.5162 92.6613 91.1215 92C90.7375 91.328 90.5455 90.5707 90.5455 89.728C90.5455 88.896 90.7322 88.1493 91.1055 87.488C91.4895 86.816 92.0175 86.2933 92.6895 85.92C93.3615 85.5467 94.1188 85.36 94.9615 85.36C95.7935 85.36 96.5348 85.5467 97.1855 85.92C97.8468 86.2827 98.3588 86.8 98.7215 87.472C99.0948 88.1333 99.2815 88.9013 99.2815 89.776ZM94.9615 86.96C94.3215 86.96 93.7775 87.152 93.3295 87.536C92.8922 87.9093 92.6255 88.4107 92.5295 89.04H97.3775C97.2922 88.4213 97.0308 87.92 96.5935 87.536C96.1562 87.152 95.6122 86.96 94.9615 86.96Z" fill="#1A202C"/>
<path d="M50 44C50 44 55.0909 34 64 34C72.9091 34 78 44 78 44C78 44 72.9091 54 64 54C55.0909 54 50 44 50 44Z" stroke="#00CC96" stroke-width="2.5" stroke-linecap="round" stroke-linejoin="round"/>
<path d="M63.9999 47.75C66.1087 47.75 67.8181 46.0711 67.8181 44C67.8181 41.9289 66.1087 40.25 63.9999 40.25C61.8912 40.25 60.1818 41.9289 60.1818 44C60.1818 46.0711 61.8912 47.75 63.9999 47.75Z" stroke="#00CC96" stroke-width="2.5" stroke-linecap="round" stroke-linejoin="round"/>
</svg>
