<svg width="128" height="128" viewBox="0 0 128 128" fill="none" xmlns="http://www.w3.org/2000/svg">
<rect width="128" height="128" rx="24" fill="#F6F7FB"/>
<path d="M31.9213 94.16C31.0573 94.16 30.22 94.0373 29.4093 93.792C28.6093 93.5467 27.9746 93.2213 27.5053 92.816L28.2253 91.2C28.684 91.5627 29.244 91.8613 29.9053 92.096C30.5773 92.32 31.2493 92.432 31.9213 92.432C32.7533 92.432 33.372 92.2987 33.7773 92.032C34.1933 91.7653 34.4013 91.4133 34.4013 90.976C34.4013 90.656 34.284 90.3947 34.0493 90.192C33.8253 89.9787 33.5373 89.8133 33.1853 89.696C32.8333 89.5787 32.3533 89.4453 31.7453 89.296C30.892 89.0933 30.1986 88.8907 29.6653 88.688C29.1426 88.4853 28.6893 88.1707 28.3053 87.744C27.932 87.3067 27.7453 86.72 27.7453 85.984C27.7453 85.3653 27.9106 84.8053 28.2413 84.304C28.5826 83.792 29.0893 83.3867 29.7613 83.088C30.444 82.7893 31.276 82.64 32.2573 82.64C32.94 82.64 33.612 82.7253 34.2733 82.896C34.9346 83.0667 35.5053 83.312 35.9853 83.632L35.3293 85.248C34.8386 84.96 34.3266 84.7413 33.7933 84.592C33.26 84.4427 32.7426 84.368 32.2413 84.368C31.42 84.368 30.8066 84.5067 30.4013 84.784C30.0066 85.0613 29.8093 85.4293 29.8093 85.888C29.8093 86.208 29.9213 86.4693 30.1453 86.672C30.38 86.8747 30.6733 87.0347 31.0253 87.152C31.3773 87.2693 31.8573 87.4027 32.4653 87.552C33.2973 87.744 33.98 87.9467 34.5133 88.16C35.0466 88.3627 35.5 88.6773 35.8733 89.104C36.2573 89.5307 36.4493 90.1067 36.4493 90.832C36.4493 91.4507 36.2786 92.0107 35.9373 92.512C35.6066 93.0133 35.1 93.4133 34.4173 93.712C33.7346 94.0107 32.9026 94.16 31.9213 94.16ZM46.5918 85.456V94H44.6878V92.912C44.3678 93.296 43.9678 93.5947 43.4878 93.808C43.0078 94.0107 42.4905 94.112 41.9358 94.112C40.7945 94.112 39.8931 93.7973 39.2318 93.168C38.5811 92.528 38.2558 91.584 38.2558 90.336V85.456H40.2558V90.064C40.2558 90.832 40.4265 91.408 40.7678 91.792C41.1198 92.1653 41.6158 92.352 42.2558 92.352C42.9705 92.352 43.5358 92.1333 43.9518 91.696C44.3785 91.248 44.5918 90.608 44.5918 89.776V85.456H46.5918ZM54.0584 85.36C55.1358 85.36 55.9998 85.6747 56.6504 86.304C57.3011 86.9333 57.6264 87.8667 57.6264 89.104V94H55.6264V89.36C55.6264 88.6133 55.4504 88.0533 55.0984 87.68C54.7464 87.296 54.2451 87.104 53.5944 87.104C52.8584 87.104 52.2771 87.328 51.8504 87.776C51.4238 88.2133 51.2104 88.848 51.2104 89.68V94H49.2104V85.456H51.1144V86.56C51.4451 86.1653 51.8611 85.8667 52.3624 85.664C52.8638 85.4613 53.4291 85.36 54.0584 85.36ZM69.9614 94.16C68.8308 94.16 67.8068 93.9147 66.8894 93.424C65.9828 92.9227 65.2681 92.2347 64.7454 91.36C64.2334 90.4853 63.9774 89.4987 63.9774 88.4C63.9774 87.3013 64.2388 86.3147 64.7614 85.44C65.2841 84.5653 65.9988 83.8827 66.9054 83.392C67.8228 82.8907 68.8468 82.64 69.9774 82.64C70.8948 82.64 71.7321 82.8 72.4894 83.12C73.2468 83.44 73.8868 83.904 74.4094 84.512L73.0654 85.776C72.2548 84.9013 71.2574 84.464 70.0734 84.464C69.3054 84.464 68.6174 84.6347 68.0094 84.976C67.4014 85.3067 66.9268 85.7707 66.5854 86.368C66.2441 86.9653 66.0734 87.6427 66.0734 88.4C66.0734 89.1573 66.2441 89.8347 66.5854 90.432C66.9268 91.0293 67.4014 91.4987 68.0094 91.84C68.6174 92.1707 69.3054 92.336 70.0734 92.336C71.2574 92.336 72.2548 91.8933 73.0654 91.008L74.4094 92.288C73.8868 92.896 73.2414 93.36 72.4734 93.68C71.7161 94 70.8788 94.16 69.9614 94.16ZM79.3963 85.36C80.655 85.36 81.615 85.664 82.2763 86.272C82.9483 86.8693 83.2843 87.776 83.2843 88.992V94H81.3963V92.96C81.151 93.3333 80.799 93.6213 80.3403 93.824C79.8923 94.016 79.3483 94.112 78.7083 94.112C78.0683 94.112 77.5083 94.0053 77.0283 93.792C76.5483 93.568 76.175 93.264 75.9083 92.88C75.6523 92.4853 75.5243 92.0427 75.5243 91.552C75.5243 90.784 75.807 90.1707 76.3723 89.712C76.9483 89.2427 77.8496 89.008 79.0763 89.008H81.2843V88.88C81.2843 88.2827 81.103 87.824 80.7403 87.504C80.3883 87.184 79.8603 87.024 79.1563 87.024C78.6763 87.024 78.2016 87.0987 77.7323 87.248C77.2736 87.3973 76.8843 87.6053 76.5643 87.872L75.7803 86.416C76.2283 86.0747 76.767 85.8133 77.3963 85.632C78.0256 85.4507 78.6923 85.36 79.3963 85.36ZM79.1243 92.656C79.6256 92.656 80.0683 92.544 80.4523 92.32C80.847 92.0853 81.1243 91.7547 81.2843 91.328V90.336H79.2203C78.0683 90.336 77.4923 90.7147 77.4923 91.472C77.4923 91.8347 77.6363 92.1227 77.9243 92.336C78.2123 92.5493 78.6123 92.656 79.1243 92.656ZM87.7551 86.704C88.3311 85.808 89.3444 85.36 90.7951 85.36V87.264C90.6244 87.232 90.4697 87.216 90.3311 87.216C89.5524 87.216 88.9444 87.4453 88.5071 87.904C88.0697 88.352 87.8511 89.0027 87.8511 89.856V94H85.8511V85.456H87.7551V86.704ZM100.446 89.776C100.446 89.9147 100.435 90.112 100.414 90.368H93.7096C93.8269 90.9973 94.1309 91.4987 94.6216 91.872C95.1229 92.2347 95.7416 92.416 96.4776 92.416C97.4162 92.416 98.1896 92.1067 98.7976 91.488L99.8696 92.72C99.4856 93.1787 99.0002 93.5253 98.4136 93.76C97.8269 93.9947 97.1656 94.112 96.4296 94.112C95.4909 94.112 94.6642 93.9253 93.9496 93.552C93.2349 93.1787 92.6802 92.6613 92.2856 92C91.9016 91.328 91.7096 90.5707 91.7096 89.728C91.7096 88.896 91.8962 88.1493 92.2696 87.488C92.6536 86.816 93.1816 86.2933 93.8536 85.92C94.5256 85.5467 95.2829 85.36 96.1256 85.36C96.9576 85.36 97.6989 85.5467 98.3496 85.92C99.0109 86.2827 99.5229 86.8 99.8856 87.472C100.259 88.1333 100.446 88.9013 100.446 89.776ZM96.1256 86.96C95.4856 86.96 94.9416 87.152 94.4936 87.536C94.0562 87.9093 93.7896 88.4107 93.6936 89.04H98.5416C98.4562 88.4213 98.1949 87.92 97.7576 87.536C97.3202 87.152 96.7762 86.96 96.1256 86.96Z" fill="#1A202C"/>
<path d="M64.0001 49.4547C67.0125 49.4547 69.4546 47.0127 69.4546 44.0002C69.4546 40.9877 67.0125 38.5457 64.0001 38.5457C60.9876 38.5457 58.5455 40.9877 58.5455 44.0002C58.5455 47.0127 60.9876 49.4547 64.0001 49.4547Z" stroke="#00CC96" stroke-width="2.5" stroke-linecap="round" stroke-linejoin="round"/>
<path d="M64 32V34.1818" stroke="#00CC96" stroke-width="2.5" stroke-linecap="round" stroke-linejoin="round"/>
<path d="M64 53.8181V55.9999" stroke="#00CC96" stroke-width="2.5" stroke-linecap="round" stroke-linejoin="round"/>
<path d="M55.5127 35.5127L57.0618 37.0618" stroke="#00CC96" stroke-width="2.5" stroke-linecap="round" stroke-linejoin="round"/>
<path d="M70.9381 50.9382L72.4872 52.4873" stroke="#00CC96" stroke-width="2.5" stroke-linecap="round" stroke-linejoin="round"/>
<path d="M52 44H54.1818" stroke="#00CC96" stroke-width="2.5" stroke-linecap="round" stroke-linejoin="round"/>
<path d="M73.8182 44H76.0001" stroke="#00CC96" stroke-width="2.5" stroke-linecap="round" stroke-linejoin="round"/>
<path d="M55.5127 52.4873L57.0618 50.9382" stroke="#00CC96" stroke-width="2.5" stroke-linecap="round" stroke-linejoin="round"/>
<path d="M70.9381 37.0618L72.4872 35.5127" stroke="#00CC96" stroke-width="2.5" stroke-linecap="round" stroke-linejoin="round"/>
</svg>
