<svg width="128" height="128" viewBox="0 0 128 128" fill="none" xmlns="http://www.w3.org/2000/svg">
<rect width="128" height="128" rx="24" fill="#F6F7FB"/>
<path d="M30.3028 84.544V87.952H35.7108V89.712H30.3028V94H28.2228V82.8H36.3988V84.544H30.3028ZM46.0159 89.776C46.0159 89.9147 46.0052 90.112 45.9839 90.368H39.2799C39.3972 90.9973 39.7012 91.4987 40.1919 91.872C40.6932 92.2347 41.3119 92.416 42.0479 92.416C42.9865 92.416 43.7599 92.1067 44.3679 91.488L45.4399 92.72C45.0559 93.1787 44.5705 93.5253 43.9839 93.76C43.3972 93.9947 42.7359 94.112 41.9999 94.112C41.0612 94.112 40.2345 93.9253 39.5199 93.552C38.8052 93.1787 38.2505 92.6613 37.8559 92C37.4719 91.328 37.2799 90.5707 37.2799 89.728C37.2799 88.896 37.4665 88.1493 37.8399 87.488C38.2239 86.816 38.7519 86.2933 39.4239 85.92C40.0959 85.5467 40.8532 85.36 41.6959 85.36C42.5279 85.36 43.2692 85.5467 43.9199 85.92C44.5812 86.2827 45.0932 86.8 45.4559 87.472C45.8292 88.1333 46.0159 88.9013 46.0159 89.776ZM41.6959 86.96C41.0559 86.96 40.5119 87.152 40.0639 87.536C39.6265 87.9093 39.3599 88.4107 39.2639 89.04H44.1119C44.0265 88.4213 43.7652 87.92 43.3279 87.536C42.8905 87.152 42.3465 86.96 41.6959 86.96ZM50.9666 85.36C52.2253 85.36 53.1853 85.664 53.8466 86.272C54.5186 86.8693 54.8546 87.776 54.8546 88.992V94H52.9666V92.96C52.7213 93.3333 52.3693 93.6213 51.9106 93.824C51.4626 94.016 50.9186 94.112 50.2786 94.112C49.6386 94.112 49.0786 94.0053 48.5986 93.792C48.1186 93.568 47.7453 93.264 47.4786 92.88C47.2226 92.4853 47.0946 92.0427 47.0946 91.552C47.0946 90.784 47.3773 90.1707 47.9426 89.712C48.5186 89.2427 49.42 89.008 50.6466 89.008H52.8546V88.88C52.8546 88.2827 52.6733 87.824 52.3106 87.504C51.9586 87.184 51.4306 87.024 50.7266 87.024C50.2466 87.024 49.772 87.0987 49.3026 87.248C48.844 87.3973 48.4546 87.6053 48.1346 87.872L47.3506 86.416C47.7986 86.0747 48.3373 85.8133 48.9666 85.632C49.596 85.4507 50.2626 85.36 50.9666 85.36ZM50.6946 92.656C51.196 92.656 51.6386 92.544 52.0226 92.32C52.4173 92.0853 52.6946 91.7547 52.8546 91.328V90.336H50.7906C49.6386 90.336 49.0626 90.7147 49.0626 91.472C49.0626 91.8347 49.2066 92.1227 49.4946 92.336C49.7826 92.5493 50.1826 92.656 50.6946 92.656ZM62.5574 93.536C62.3227 93.728 62.0347 93.872 61.6934 93.968C61.3627 94.064 61.0107 94.112 60.6374 94.112C59.6987 94.112 58.9734 93.8667 58.4614 93.376C57.9494 92.8853 57.6934 92.1707 57.6934 91.232V87.12H56.2854V85.52H57.6934V83.568H59.6934V85.52H61.9814V87.12H59.6934V91.184C59.6934 91.6 59.7947 91.92 59.9974 92.144C60.2 92.3573 60.4934 92.464 60.8774 92.464C61.3254 92.464 61.6987 92.3467 61.9974 92.112L62.5574 93.536ZM72.4746 85.456V94H70.5706V92.912C70.2506 93.296 69.8506 93.5947 69.3706 93.808C68.8906 94.0107 68.3733 94.112 67.8186 94.112C66.6773 94.112 65.776 93.7973 65.1146 93.168C64.464 92.528 64.1386 91.584 64.1386 90.336V85.456H66.1386V90.064C66.1386 90.832 66.3093 91.408 66.6506 91.792C67.0026 92.1653 67.4986 92.352 68.1386 92.352C68.8533 92.352 69.4186 92.1333 69.8346 91.696C70.2613 91.248 70.4746 90.608 70.4746 89.776V85.456H72.4746ZM76.9973 86.704C77.5733 85.808 78.5866 85.36 80.0373 85.36V87.264C79.8666 87.232 79.7119 87.216 79.5733 87.216C78.7946 87.216 78.1866 87.4453 77.7493 87.904C77.3119 88.352 77.0933 89.0027 77.0933 89.856V94H75.0933V85.456H76.9973V86.704ZM89.6878 89.776C89.6878 89.9147 89.6771 90.112 89.6558 90.368H82.9518C83.0691 90.9973 83.3731 91.4987 83.8638 91.872C84.3651 92.2347 84.9838 92.416 85.7198 92.416C86.6584 92.416 87.4318 92.1067 88.0398 91.488L89.1118 92.72C88.7278 93.1787 88.2424 93.5253 87.6558 93.76C87.0691 93.9947 86.4078 94.112 85.6718 94.112C84.7331 94.112 83.9064 93.9253 83.1918 93.552C82.4771 93.1787 81.9224 92.6613 81.5278 92C81.1438 91.328 80.9518 90.5707 80.9518 89.728C80.9518 88.896 81.1384 88.1493 81.5118 87.488C81.8958 86.816 82.4238 86.2933 83.0958 85.92C83.7678 85.5467 84.5251 85.36 85.3678 85.36C86.1998 85.36 86.9411 85.5467 87.5918 85.92C88.2531 86.2827 88.7651 86.8 89.1278 87.472C89.5011 88.1333 89.6878 88.9013 89.6878 89.776ZM85.3678 86.96C84.7278 86.96 84.1838 87.152 83.7358 87.536C83.2984 87.9093 83.0318 88.4107 82.9358 89.04H87.7838C87.6984 88.4213 87.4371 87.92 86.9998 87.536C86.5624 87.152 86.0184 86.96 85.3678 86.96ZM99.9769 82.128V94H98.0569V92.896C97.7262 93.3013 97.3155 93.6053 96.8249 93.808C96.3449 94.0107 95.8115 94.112 95.2249 94.112C94.4035 94.112 93.6622 93.9307 93.0009 93.568C92.3502 93.2053 91.8382 92.6933 91.4649 92.032C91.0915 91.36 90.9049 90.592 90.9049 89.728C90.9049 88.864 91.0915 88.1013 91.4649 87.44C91.8382 86.7787 92.3502 86.2667 93.0009 85.904C93.6622 85.5413 94.4035 85.36 95.2249 85.36C95.7902 85.36 96.3075 85.456 96.7769 85.648C97.2462 85.84 97.6462 86.128 97.9769 86.512V82.128H99.9769ZM95.4649 92.4C95.9449 92.4 96.3769 92.2933 96.7609 92.08C97.1449 91.856 97.4489 91.5413 97.6729 91.136C97.8969 90.7307 98.0089 90.2613 98.0089 89.728C98.0089 89.1947 97.8969 88.7253 97.6729 88.32C97.4489 87.9147 97.1449 87.6053 96.7609 87.392C96.3769 87.168 95.9449 87.056 95.4649 87.056C94.9849 87.056 94.5529 87.168 94.1689 87.392C93.7849 87.6053 93.4809 87.9147 93.2569 88.32C93.0329 88.7253 92.9209 89.1947 92.9209 89.728C92.9209 90.2613 93.0329 90.7307 93.2569 91.136C93.4809 91.5413 93.7849 91.856 94.1689 92.08C94.5529 92.2933 94.9849 92.4 95.4649 92.4Z" fill="#1A202C"/>
<path d="M78 37L65.9091 48.875L59.5455 42.625L50 52" stroke="#00CC96" stroke-width="2.5" stroke-linecap="round" stroke-linejoin="round"/>
<path d="M70 37H78V45" stroke="#00CC96" stroke-width="2.5" stroke-linecap="round" stroke-linejoin="round"/>
</svg>
