<svg width="128" height="128" viewBox="0 0 128 128" fill="none" xmlns="http://www.w3.org/2000/svg">
<rect width="128" height="128" rx="24" fill="#F6F7FB"/>
<path d="M39.1344 94.16C37.9931 94.16 36.9638 93.9147 36.0464 93.424C35.1291 92.9227 34.4091 92.2347 33.8864 91.36C33.3638 90.4747 33.1024 89.488 33.1024 88.4C33.1024 87.312 33.3638 86.3307 33.8864 85.456C34.4091 84.5707 35.1291 83.8827 36.0464 83.392C36.9638 82.8907 37.9931 82.64 39.1344 82.64C40.2758 82.64 41.3051 82.8907 42.2224 83.392C43.1398 83.8827 43.8598 84.5653 44.3824 85.44C44.9051 86.3147 45.1664 87.3013 45.1664 88.4C45.1664 89.4987 44.9051 90.4853 44.3824 91.36C43.8598 92.2347 43.1398 92.9227 42.2224 93.424C41.3051 93.9147 40.2758 94.16 39.1344 94.16ZM39.1344 92.336C39.8811 92.336 40.5531 92.1707 41.1504 91.84C41.7478 91.4987 42.2171 91.0293 42.5584 90.432C42.8998 89.824 43.0704 89.1467 43.0704 88.4C43.0704 87.6533 42.8998 86.9813 42.5584 86.384C42.2171 85.776 41.7478 85.3067 41.1504 84.976C40.5531 84.6347 39.8811 84.464 39.1344 84.464C38.3878 84.464 37.7158 84.6347 37.1184 84.976C36.5211 85.3067 36.0518 85.776 35.7104 86.384C35.3691 86.9813 35.1984 87.6533 35.1984 88.4C35.1984 89.1467 35.3691 89.824 35.7104 90.432C36.0518 91.0293 36.5211 91.4987 37.1184 91.84C37.7158 92.1707 38.3878 92.336 39.1344 92.336ZM52.0272 85.36C53.1045 85.36 53.9685 85.6747 54.6192 86.304C55.2699 86.9333 55.5952 87.8667 55.5952 89.104V94H53.5952V89.36C53.5952 88.6133 53.4192 88.0533 53.0672 87.68C52.7152 87.296 52.2139 87.104 51.5632 87.104C50.8272 87.104 50.2459 87.328 49.8192 87.776C49.3925 88.2133 49.1792 88.848 49.1792 89.68V94H47.1792V85.456H49.0832V86.56C49.4139 86.1653 49.8299 85.8667 50.3312 85.664C50.8325 85.4613 51.3979 85.36 52.0272 85.36ZM66.2182 94.16C65.3542 94.16 64.5169 94.0373 63.7062 93.792C62.9062 93.5467 62.2715 93.2213 61.8022 92.816L62.5222 91.2C62.9809 91.5627 63.5409 91.8613 64.2022 92.096C64.8742 92.32 65.5462 92.432 66.2182 92.432C67.0502 92.432 67.6689 92.2987 68.0742 92.032C68.4902 91.7653 68.6982 91.4133 68.6982 90.976C68.6982 90.656 68.5809 90.3947 68.3462 90.192C68.1222 89.9787 67.8342 89.8133 67.4822 89.696C67.1302 89.5787 66.6502 89.4453 66.0422 89.296C65.1889 89.0933 64.4955 88.8907 63.9622 88.688C63.4395 88.4853 62.9862 88.1707 62.6022 87.744C62.2289 87.3067 62.0422 86.72 62.0422 85.984C62.0422 85.3653 62.2075 84.8053 62.5382 84.304C62.8795 83.792 63.3862 83.3867 64.0582 83.088C64.7409 82.7893 65.5729 82.64 66.5542 82.64C67.2369 82.64 67.9089 82.7253 68.5702 82.896C69.2315 83.0667 69.8022 83.312 70.2822 83.632L69.6262 85.248C69.1355 84.96 68.6235 84.7413 68.0902 84.592C67.5569 84.4427 67.0395 84.368 66.5382 84.368C65.7169 84.368 65.1035 84.5067 64.6982 84.784C64.3035 85.0613 64.1062 85.4293 64.1062 85.888C64.1062 86.208 64.2182 86.4693 64.4422 86.672C64.6769 86.8747 64.9702 87.0347 65.3222 87.152C65.6742 87.2693 66.1542 87.4027 66.7622 87.552C67.5942 87.744 68.2769 87.9467 68.8102 88.16C69.3435 88.3627 69.7969 88.6773 70.1702 89.104C70.5542 89.5307 70.7462 90.1067 70.7462 90.832C70.7462 91.4507 70.5755 92.0107 70.2342 92.512C69.9035 93.0133 69.3969 93.4133 68.7142 93.712C68.0315 94.0107 67.1995 94.16 66.2182 94.16ZM75.8807 85.36C77.1394 85.36 78.0994 85.664 78.7607 86.272C79.4327 86.8693 79.7687 87.776 79.7687 88.992V94H77.8807V92.96C77.6354 93.3333 77.2834 93.6213 76.8247 93.824C76.3767 94.016 75.8327 94.112 75.1927 94.112C74.5527 94.112 73.9927 94.0053 73.5127 93.792C73.0327 93.568 72.6594 93.264 72.3927 92.88C72.1367 92.4853 72.0087 92.0427 72.0087 91.552C72.0087 90.784 72.2914 90.1707 72.8567 89.712C73.4327 89.2427 74.334 89.008 75.5607 89.008H77.7687V88.88C77.7687 88.2827 77.5874 87.824 77.2247 87.504C76.8727 87.184 76.3447 87.024 75.6407 87.024C75.1607 87.024 74.686 87.0987 74.2167 87.248C73.758 87.3973 73.3687 87.6053 73.0487 87.872L72.2647 86.416C72.7127 86.0747 73.2514 85.8133 73.8807 85.632C74.51 85.4507 75.1767 85.36 75.8807 85.36ZM75.6087 92.656C76.11 92.656 76.5527 92.544 76.9367 92.32C77.3314 92.0853 77.6087 91.7547 77.7687 91.328V90.336H75.7047C74.5527 90.336 73.9767 90.7147 73.9767 91.472C73.9767 91.8347 74.1207 92.1227 74.4087 92.336C74.6967 92.5493 75.0967 92.656 75.6087 92.656ZM82.3354 82.128H84.3354V94H82.3354V82.128ZM94.9924 89.776C94.9924 89.9147 94.9818 90.112 94.9604 90.368H88.2564C88.3738 90.9973 88.6778 91.4987 89.1684 91.872C89.6698 92.2347 90.2884 92.416 91.0244 92.416C91.9631 92.416 92.7364 92.1067 93.3444 91.488L94.4164 92.72C94.0324 93.1787 93.5471 93.5253 92.9604 93.76C92.3738 93.9947 91.7124 94.112 90.9764 94.112C90.0378 94.112 89.2111 93.9253 88.4964 93.552C87.7818 93.1787 87.2271 92.6613 86.8324 92C86.4484 91.328 86.2564 90.5707 86.2564 89.728C86.2564 88.896 86.4431 88.1493 86.8164 87.488C87.2004 86.816 87.7284 86.2933 88.4004 85.92C89.0724 85.5467 89.8298 85.36 90.6724 85.36C91.5044 85.36 92.2458 85.5467 92.8964 85.92C93.5578 86.2827 94.0698 86.8 94.4324 87.472C94.8058 88.1333 94.9924 88.9013 94.9924 89.776ZM90.6724 86.96C90.0324 86.96 89.4884 87.152 89.0404 87.536C88.6031 87.9093 88.3364 88.4107 88.2404 89.04H93.0884C93.0031 88.4213 92.7418 87.92 92.3044 87.536C91.8671 87.152 91.3231 86.96 90.6724 86.96Z" fill="#1A202C"/>
<path d="M56.1667 30L52 35.6V55.2C52 55.9426 52.2927 56.6548 52.8136 57.1799C53.3345 57.705 54.0411 58 54.7778 58H74.2222C74.9589 58 75.6655 57.705 76.1864 57.1799C76.7073 56.6548 77 55.9426 77 55.2V35.6L72.8333 30H56.1667Z" stroke="#00CC96" stroke-width="2.5" stroke-linecap="round" stroke-linejoin="round"/>
<path d="M52 35.6H77" stroke="#00CC96" stroke-width="2.5" stroke-linecap="round" stroke-linejoin="round"/>
<path d="M70.0556 41.1998C70.0556 42.685 69.4702 44.1094 68.4284 45.1596C67.3865 46.2098 65.9734 46.7998 64.5 46.7998C63.0266 46.7998 61.6135 46.2098 60.5716 45.1596C59.5298 44.1094 58.9444 42.685 58.9444 41.1998" stroke="#00CC96" stroke-width="2.5" stroke-linecap="round" stroke-linejoin="round"/>
</svg>
