<svg width="128" height="128" viewBox="0 0 128 128" fill="none" xmlns="http://www.w3.org/2000/svg">
<rect width="128" height="128" rx="24" fill="#F6F7FB"/>
<path d="M20.2526 84.56H16.5406V82.8H26.0446V84.56H22.3326V94H20.2526V84.56ZM29.1144 86.704C29.6904 85.808 30.7038 85.36 32.1544 85.36V87.264C31.9838 87.232 31.8291 87.216 31.6904 87.216C30.9118 87.216 30.3038 87.4453 29.8664 87.904C29.4291 88.352 29.2104 89.0027 29.2104 89.856V94H27.2104V85.456H29.1144V86.704ZM41.8049 89.776C41.8049 89.9147 41.7943 90.112 41.7729 90.368H35.0689C35.1863 90.9973 35.4903 91.4987 35.9809 91.872C36.4823 92.2347 37.1009 92.416 37.8369 92.416C38.7756 92.416 39.5489 92.1067 40.1569 91.488L41.2289 92.72C40.8449 93.1787 40.3596 93.5253 39.7729 93.76C39.1863 93.9947 38.5249 94.112 37.7889 94.112C36.8503 94.112 36.0236 93.9253 35.3089 93.552C34.5943 93.1787 34.0396 92.6613 33.6449 92C33.2609 91.328 33.0689 90.5707 33.0689 89.728C33.0689 88.896 33.2556 88.1493 33.6289 87.488C34.0129 86.816 34.5409 86.2933 35.2129 85.92C35.8849 85.5467 36.6423 85.36 37.4849 85.36C38.3169 85.36 39.0583 85.5467 39.7089 85.92C40.3703 86.2827 40.8823 86.8 41.2449 87.472C41.6183 88.1333 41.8049 88.9013 41.8049 89.776ZM37.4849 86.96C36.8449 86.96 36.3009 87.152 35.8529 87.536C35.4156 87.9093 35.1489 88.4107 35.0529 89.04H39.9009C39.8156 88.4213 39.5543 87.92 39.1169 87.536C38.6796 87.152 38.1356 86.96 37.4849 86.96ZM46.7557 85.36C48.0144 85.36 48.9744 85.664 49.6357 86.272C50.3077 86.8693 50.6437 87.776 50.6437 88.992V94H48.7557V92.96C48.5104 93.3333 48.1584 93.6213 47.6997 93.824C47.2517 94.016 46.7077 94.112 46.0677 94.112C45.4277 94.112 44.8677 94.0053 44.3877 93.792C43.9077 93.568 43.5344 93.264 43.2677 92.88C43.0117 92.4853 42.8837 92.0427 42.8837 91.552C42.8837 90.784 43.1664 90.1707 43.7317 89.712C44.3077 89.2427 45.209 89.008 46.4357 89.008H48.6437V88.88C48.6437 88.2827 48.4624 87.824 48.0997 87.504C47.7477 87.184 47.2197 87.024 46.5157 87.024C46.0357 87.024 45.561 87.0987 45.0917 87.248C44.633 87.3973 44.2437 87.6053 43.9237 87.872L43.1397 86.416C43.5877 86.0747 44.1264 85.8133 44.7557 85.632C45.385 85.4507 46.0517 85.36 46.7557 85.36ZM46.4837 92.656C46.985 92.656 47.4277 92.544 47.8117 92.32C48.2064 92.0853 48.4837 91.7547 48.6437 91.328V90.336H46.5797C45.4277 90.336 44.8517 90.7147 44.8517 91.472C44.8517 91.8347 44.9957 92.1227 45.2837 92.336C45.5717 92.5493 45.9717 92.656 46.4837 92.656ZM58.3464 93.536C58.1118 93.728 57.8238 93.872 57.4824 93.968C57.1518 94.064 56.7998 94.112 56.4264 94.112C55.4878 94.112 54.7624 93.8667 54.2504 93.376C53.7384 92.8853 53.4824 92.1707 53.4824 91.232V87.12H52.0744V85.52H53.4824V83.568H55.4824V85.52H57.7704V87.12H55.4824V91.184C55.4824 91.6 55.5838 91.92 55.7864 92.144C55.9891 92.3573 56.2824 92.464 56.6664 92.464C57.1144 92.464 57.4878 92.3467 57.7864 92.112L58.3464 93.536ZM70.7757 85.36C71.853 85.36 72.7064 85.6747 73.3357 86.304C73.965 86.9227 74.2797 87.856 74.2797 89.104V94H72.2797V89.36C72.2797 88.6133 72.1144 88.0533 71.7837 87.68C71.453 87.296 70.9784 87.104 70.3597 87.104C69.6877 87.104 69.149 87.328 68.7437 87.776C68.3384 88.2133 68.1357 88.8427 68.1357 89.664V94H66.1357V89.36C66.1357 88.6133 65.9704 88.0533 65.6397 87.68C65.309 87.296 64.8344 87.104 64.2157 87.104C63.533 87.104 62.989 87.3227 62.5837 87.76C62.189 88.1973 61.9917 88.832 61.9917 89.664V94H59.9917V85.456H61.8957V86.544C62.2157 86.16 62.6157 85.8667 63.0957 85.664C63.5757 85.4613 64.109 85.36 64.6957 85.36C65.3357 85.36 65.901 85.4827 66.3917 85.728C66.893 85.9627 67.2877 86.3147 67.5757 86.784C67.9277 86.336 68.381 85.9893 68.9357 85.744C69.4904 85.488 70.1037 85.36 70.7757 85.36ZM84.9456 89.776C84.9456 89.9147 84.9349 90.112 84.9136 90.368H78.2096C78.3269 90.9973 78.6309 91.4987 79.1216 91.872C79.6229 92.2347 80.2416 92.416 80.9776 92.416C81.9162 92.416 82.6896 92.1067 83.2976 91.488L84.3696 92.72C83.9856 93.1787 83.5002 93.5253 82.9136 93.76C82.3269 93.9947 81.6656 94.112 80.9296 94.112C79.9909 94.112 79.1642 93.9253 78.4496 93.552C77.7349 93.1787 77.1802 92.6613 76.7856 92C76.4016 91.328 76.2096 90.5707 76.2096 89.728C76.2096 88.896 76.3962 88.1493 76.7696 87.488C77.1536 86.816 77.6816 86.2933 78.3536 85.92C79.0256 85.5467 79.7829 85.36 80.6256 85.36C81.4576 85.36 82.1989 85.5467 82.8496 85.92C83.5109 86.2827 84.0229 86.8 84.3856 87.472C84.7589 88.1333 84.9456 88.9013 84.9456 89.776ZM80.6256 86.96C79.9856 86.96 79.4416 87.152 78.9936 87.536C78.5562 87.9093 78.2896 88.4107 78.1936 89.04H83.0416C82.9562 88.4213 82.6949 87.92 82.2576 87.536C81.8202 87.152 81.2762 86.96 80.6256 86.96ZM91.7147 85.36C92.792 85.36 93.656 85.6747 94.3067 86.304C94.9574 86.9333 95.2827 87.8667 95.2827 89.104V94H93.2827V89.36C93.2827 88.6133 93.1067 88.0533 92.7547 87.68C92.4027 87.296 91.9014 87.104 91.2507 87.104C90.5147 87.104 89.9334 87.328 89.5067 87.776C89.08 88.2133 88.8667 88.848 88.8667 89.68V94H86.8667V85.456H88.7707V86.56C89.1014 86.1653 89.5174 85.8667 90.0187 85.664C90.52 85.4613 91.0854 85.36 91.7147 85.36ZM102.956 93.536C102.721 93.728 102.433 93.872 102.092 93.968C101.761 94.064 101.409 94.112 101.036 94.112C100.097 94.112 99.3718 93.8667 98.8598 93.376C98.3478 92.8853 98.0918 92.1707 98.0918 91.232V87.12H96.6838V85.52H98.0918V83.568H100.092V85.52H102.38V87.12H100.092V91.184C100.092 91.6 100.193 91.92 100.396 92.144C100.598 92.3573 100.892 92.464 101.276 92.464C101.724 92.464 102.097 92.3467 102.396 92.112L102.956 93.536ZM107.241 94.112C106.548 94.112 105.87 94.0213 105.209 93.84C104.548 93.6587 104.02 93.4293 103.625 93.152L104.393 91.632C104.777 91.888 105.236 92.096 105.769 92.256C106.313 92.4053 106.846 92.48 107.369 92.48C108.564 92.48 109.161 92.1653 109.161 91.536C109.161 91.2373 109.006 91.0293 108.697 90.912C108.398 90.7947 107.913 90.6827 107.241 90.576C106.537 90.4693 105.961 90.3467 105.513 90.208C105.076 90.0693 104.692 89.8293 104.361 89.488C104.041 89.136 103.881 88.6507 103.881 88.032C103.881 87.2213 104.217 86.576 104.889 86.096C105.572 85.6053 106.489 85.36 107.641 85.36C108.228 85.36 108.814 85.4293 109.401 85.568C109.988 85.696 110.468 85.872 110.841 86.096L110.073 87.616C109.348 87.1893 108.532 86.976 107.625 86.976C107.038 86.976 106.59 87.0667 106.281 87.248C105.982 87.4187 105.833 87.648 105.833 87.936C105.833 88.256 105.993 88.4853 106.313 88.624C106.644 88.752 107.15 88.8747 107.833 88.992C108.516 89.0987 109.076 89.2213 109.513 89.36C109.95 89.4987 110.324 89.7333 110.633 90.064C110.953 90.3947 111.113 90.864 111.113 91.472C111.113 92.272 110.766 92.912 110.073 93.392C109.38 93.872 108.436 94.112 107.241 94.112Z" fill="#1A202C"/>
<path d="M64 58C64 58 75 52.4 75 44V34.2L64 30L53 34.2V44C53 52.4 64 58 64 58Z" stroke="#00CC96" stroke-width="2.5" stroke-linecap="round" stroke-linejoin="round"/>
</svg>
