<svg width="128" height="128" viewBox="0 0 128 128" fill="none" xmlns="http://www.w3.org/2000/svg">
<rect width="128" height="128" rx="24" fill="#F6F7FB"/>
<path d="M50.1045 94L50.0885 86.576L46.4085 92.72H45.4805L41.8005 86.672V94H39.8165V82.8H41.5285L45.9765 90.224L50.3445 82.8H52.0565L52.0725 94H50.1045ZM58.1698 85.36C59.4284 85.36 60.3884 85.664 61.0498 86.272C61.7218 86.8693 62.0578 87.776 62.0578 88.992V94H60.1698V92.96C59.9244 93.3333 59.5724 93.6213 59.1138 93.824C58.6658 94.016 58.1218 94.112 57.4818 94.112C56.8418 94.112 56.2818 94.0053 55.8018 93.792C55.3218 93.568 54.9484 93.264 54.6818 92.88C54.4258 92.4853 54.2978 92.0427 54.2978 91.552C54.2978 90.784 54.5804 90.1707 55.1458 89.712C55.7218 89.2427 56.6231 89.008 57.8498 89.008H60.0578V88.88C60.0578 88.2827 59.8764 87.824 59.5138 87.504C59.1618 87.184 58.6338 87.024 57.9298 87.024C57.4498 87.024 56.9751 87.0987 56.5058 87.248C56.0471 87.3973 55.6578 87.6053 55.3378 87.872L54.5538 86.416C55.0018 86.0747 55.5404 85.8133 56.1698 85.632C56.7991 85.4507 57.4658 85.36 58.1698 85.36ZM57.8978 92.656C58.3991 92.656 58.8418 92.544 59.2258 92.32C59.6204 92.0853 59.8978 91.7547 60.0578 91.328V90.336H57.9938C56.8418 90.336 56.2658 90.7147 56.2658 91.472C56.2658 91.8347 56.4098 92.1227 56.6978 92.336C56.9858 92.5493 57.3858 92.656 57.8978 92.656ZM67.2645 94.112C66.5712 94.112 65.8938 94.0213 65.2325 93.84C64.5712 93.6587 64.0432 93.4293 63.6485 93.152L64.4165 91.632C64.8005 91.888 65.2592 92.096 65.7925 92.256C66.3365 92.4053 66.8698 92.48 67.3925 92.48C68.5872 92.48 69.1845 92.1653 69.1845 91.536C69.1845 91.2373 69.0298 91.0293 68.7205 90.912C68.4218 90.7947 67.9365 90.6827 67.2645 90.576C66.5605 90.4693 65.9845 90.3467 65.5365 90.208C65.0992 90.0693 64.7152 89.8293 64.3845 89.488C64.0645 89.136 63.9045 88.6507 63.9045 88.032C63.9045 87.2213 64.2405 86.576 64.9125 86.096C65.5952 85.6053 66.5125 85.36 67.6645 85.36C68.2512 85.36 68.8378 85.4293 69.4245 85.568C70.0112 85.696 70.4912 85.872 70.8645 86.096L70.0965 87.616C69.3712 87.1893 68.5552 86.976 67.6485 86.976C67.0618 86.976 66.6138 87.0667 66.3045 87.248C66.0058 87.4187 65.8565 87.648 65.8565 87.936C65.8565 88.256 66.0165 88.4853 66.3365 88.624C66.6672 88.752 67.1738 88.8747 67.8565 88.992C68.5392 89.0987 69.0992 89.2213 69.5365 89.36C69.9738 89.4987 70.3472 89.7333 70.6565 90.064C70.9765 90.3947 71.1365 90.864 71.1365 91.472C71.1365 92.272 70.7898 92.912 70.0965 93.392C69.4032 93.872 68.4592 94.112 67.2645 94.112ZM76.3469 90.336L74.8589 91.744V94H72.8589V82.128H74.8589V89.296L79.0029 85.456H81.4029L77.8349 89.04L81.7389 94H79.3069L76.3469 90.336ZM85.4051 94.112C84.7118 94.112 84.0345 94.0213 83.3731 93.84C82.7118 93.6587 82.1838 93.4293 81.7891 93.152L82.5571 91.632C82.9411 91.888 83.3998 92.096 83.9331 92.256C84.4771 92.4053 85.0105 92.48 85.5331 92.48C86.7278 92.48 87.3251 92.1653 87.3251 91.536C87.3251 91.2373 87.1705 91.0293 86.8611 90.912C86.5625 90.7947 86.0771 90.6827 85.4051 90.576C84.7011 90.4693 84.1251 90.3467 83.6771 90.208C83.2398 90.0693 82.8558 89.8293 82.5251 89.488C82.2051 89.136 82.0451 88.6507 82.0451 88.032C82.0451 87.2213 82.3811 86.576 83.0531 86.096C83.7358 85.6053 84.6531 85.36 85.8051 85.36C86.3918 85.36 86.9785 85.4293 87.5651 85.568C88.1518 85.696 88.6318 85.872 89.0051 86.096L88.2371 87.616C87.5118 87.1893 86.6958 86.976 85.7891 86.976C85.2025 86.976 84.7545 87.0667 84.4451 87.248C84.1465 87.4187 83.9971 87.648 83.9971 87.936C83.9971 88.256 84.1571 88.4853 84.4771 88.624C84.8078 88.752 85.3145 88.8747 85.9971 88.992C86.6798 89.0987 87.2398 89.2213 87.6771 89.36C88.1145 89.4987 88.4878 89.7333 88.7971 90.064C89.1171 90.3947 89.2771 90.864 89.2771 91.472C89.2771 92.272 88.9305 92.912 88.2371 93.392C87.5438 93.872 86.5998 94.112 85.4051 94.112Z" fill="#1A202C"/>
<path d="M64 30L50 37L64 44L78 37L64 30Z" stroke="#00CC96" stroke-width="2.5" stroke-linecap="round" stroke-linejoin="round"/>
<path d="M50 51L64 58L78 51" stroke="#00CC96" stroke-width="2.5" stroke-linecap="round" stroke-linejoin="round"/>
<path d="M50 44L64 51L78 44" stroke="#00CC96" stroke-width="2.5" stroke-linecap="round" stroke-linejoin="round"/>
</svg>
