<svg width="128" height="128" viewBox="0 0 128 128" fill="none" xmlns="http://www.w3.org/2000/svg">
<rect width="128" height="128" rx="24" fill="#F6F7FB"/>
<path d="M25.4717 94L25.4557 86.576L21.7757 92.72H20.8477L17.1677 86.672V94H15.1837V82.8H16.8957L21.3437 90.224L25.7117 82.8H27.4237L27.4397 94H25.4717ZM34.1129 94.112C33.2489 94.112 32.4703 93.9253 31.7769 93.552C31.0836 93.1787 30.5396 92.6613 30.1449 92C29.7609 91.328 29.5689 90.5707 29.5689 89.728C29.5689 88.8853 29.7609 88.1333 30.1449 87.472C30.5396 86.8107 31.0836 86.2933 31.7769 85.92C32.4703 85.5467 33.2489 85.36 34.1129 85.36C34.9876 85.36 35.7716 85.5467 36.4649 85.92C37.1583 86.2933 37.6969 86.8107 38.0809 87.472C38.4756 88.1333 38.6729 88.8853 38.6729 89.728C38.6729 90.5707 38.4756 91.328 38.0809 92C37.6969 92.6613 37.1583 93.1787 36.4649 93.552C35.7716 93.9253 34.9876 94.112 34.1129 94.112ZM34.1129 92.4C34.8489 92.4 35.4569 92.1547 35.9369 91.664C36.4169 91.1733 36.6569 90.528 36.6569 89.728C36.6569 88.928 36.4169 88.2827 35.9369 87.792C35.4569 87.3013 34.8489 87.056 34.1129 87.056C33.3769 87.056 32.7689 87.3013 32.2889 87.792C31.8196 88.2827 31.5849 88.928 31.5849 89.728C31.5849 90.528 31.8196 91.1733 32.2889 91.664C32.7689 92.1547 33.3769 92.4 34.1129 92.4ZM40.5854 85.456H42.5854V94H40.5854V85.456ZM41.5934 84.048C41.2308 84.048 40.9268 83.936 40.6814 83.712C40.4361 83.4773 40.3134 83.1893 40.3134 82.848C40.3134 82.5067 40.4361 82.224 40.6814 82C40.9268 81.7653 41.2308 81.648 41.5934 81.648C41.9561 81.648 42.2601 81.76 42.5054 81.984C42.7508 82.1973 42.8734 82.4693 42.8734 82.8C42.8734 83.152 42.7508 83.4507 42.5054 83.696C42.2708 83.9307 41.9668 84.048 41.5934 84.048ZM47.8504 94.112C47.1571 94.112 46.4798 94.0213 45.8184 93.84C45.1571 93.6587 44.6291 93.4293 44.2344 93.152L45.0024 91.632C45.3864 91.888 45.8451 92.096 46.3784 92.256C46.9224 92.4053 47.4558 92.48 47.9784 92.48C49.1731 92.48 49.7704 92.1653 49.7704 91.536C49.7704 91.2373 49.6158 91.0293 49.3064 90.912C49.0078 90.7947 48.5224 90.6827 47.8504 90.576C47.1464 90.4693 46.5704 90.3467 46.1224 90.208C45.6851 90.0693 45.3011 89.8293 44.9704 89.488C44.6504 89.136 44.4904 88.6507 44.4904 88.032C44.4904 87.2213 44.8264 86.576 45.4984 86.096C46.1811 85.6053 47.0984 85.36 48.2504 85.36C48.8371 85.36 49.4238 85.4293 50.0104 85.568C50.5971 85.696 51.0771 85.872 51.4504 86.096L50.6824 87.616C49.9571 87.1893 49.1411 86.976 48.2344 86.976C47.6478 86.976 47.1998 87.0667 46.8904 87.248C46.5918 87.4187 46.4424 87.648 46.4424 87.936C46.4424 88.256 46.6024 88.4853 46.9224 88.624C47.2531 88.752 47.7598 88.8747 48.4424 88.992C49.1251 89.0987 49.6851 89.2213 50.1224 89.36C50.5598 89.4987 50.9331 89.7333 51.2424 90.064C51.5624 90.3947 51.7224 90.864 51.7224 91.472C51.7224 92.272 51.3758 92.912 50.6824 93.392C49.9891 93.872 49.0451 94.112 47.8504 94.112ZM58.5808 93.536C58.3461 93.728 58.0581 93.872 57.7168 93.968C57.3861 94.064 57.0341 94.112 56.6608 94.112C55.7221 94.112 54.9968 93.8667 54.4848 93.376C53.9728 92.8853 53.7168 92.1707 53.7168 91.232V87.12H52.3088V85.52H53.7168V83.568H55.7168V85.52H58.0048V87.12H55.7168V91.184C55.7168 91.6 55.8181 91.92 56.0208 92.144C56.2235 92.3573 56.5168 92.464 56.9008 92.464C57.3488 92.464 57.7221 92.3467 58.0208 92.112L58.5808 93.536ZM68.4981 85.456V94H66.5941V92.912C66.2741 93.296 65.8741 93.5947 65.3941 93.808C64.9141 94.0107 64.3967 94.112 63.8421 94.112C62.7007 94.112 61.7994 93.7973 61.1381 93.168C60.4874 92.528 60.1621 91.584 60.1621 90.336V85.456H62.1621V90.064C62.1621 90.832 62.3327 91.408 62.6741 91.792C63.0261 92.1653 63.5221 92.352 64.1621 92.352C64.8767 92.352 65.4421 92.1333 65.8581 91.696C66.2847 91.248 66.4981 90.608 66.4981 89.776V85.456H68.4981ZM73.0207 86.704C73.5967 85.808 74.61 85.36 76.0607 85.36V87.264C75.89 87.232 75.7354 87.216 75.5967 87.216C74.818 87.216 74.21 87.4453 73.7727 87.904C73.3354 88.352 73.1167 89.0027 73.1167 89.856V94H71.1167V85.456H73.0207V86.704ZM77.7573 85.456H79.7573V94H77.7573V85.456ZM78.7653 84.048C78.4026 84.048 78.0986 83.936 77.8533 83.712C77.608 83.4773 77.4853 83.1893 77.4853 82.848C77.4853 82.5067 77.608 82.224 77.8533 82C78.0986 81.7653 78.4026 81.648 78.7653 81.648C79.128 81.648 79.432 81.76 79.6773 81.984C79.9226 82.1973 80.0453 82.4693 80.0453 82.8C80.0453 83.152 79.9226 83.4507 79.6773 83.696C79.4426 83.9307 79.1386 84.048 78.7653 84.048ZM89.0543 92.4V94H81.6783V92.736L86.3663 87.056H81.7743V85.456H88.9263V86.72L84.2223 92.4H89.0543ZM98.8049 89.776C98.8049 89.9147 98.7943 90.112 98.7729 90.368H92.0689C92.1863 90.9973 92.4903 91.4987 92.9809 91.872C93.4823 92.2347 94.1009 92.416 94.8369 92.416C95.7756 92.416 96.5489 92.1067 97.1569 91.488L98.2289 92.72C97.8449 93.1787 97.3596 93.5253 96.7729 93.76C96.1863 93.9947 95.5249 94.112 94.7889 94.112C93.8503 94.112 93.0236 93.9253 92.3089 93.552C91.5943 93.1787 91.0396 92.6613 90.6449 92C90.2609 91.328 90.0689 90.5707 90.0689 89.728C90.0689 88.896 90.2556 88.1493 90.6289 87.488C91.0129 86.816 91.5409 86.2933 92.2129 85.92C92.8849 85.5467 93.6423 85.36 94.4849 85.36C95.3169 85.36 96.0583 85.5467 96.7089 85.92C97.3703 86.2827 97.8823 86.8 98.2449 87.472C98.6183 88.1333 98.8049 88.9013 98.8049 89.776ZM94.4849 86.96C93.8449 86.96 93.3009 87.152 92.8529 87.536C92.4156 87.9093 92.1489 88.4107 92.0529 89.04H96.9009C96.8156 88.4213 96.5543 87.92 96.1169 87.536C95.6796 87.152 95.1356 86.96 94.4849 86.96ZM102.63 86.704C103.206 85.808 104.219 85.36 105.67 85.36V87.264C105.499 87.232 105.345 87.216 105.206 87.216C104.427 87.216 103.819 87.4453 103.382 87.904C102.945 88.352 102.726 89.0027 102.726 89.856V94H100.726V85.456H102.63V86.704ZM110.038 94.112C109.345 94.112 108.667 94.0213 108.006 93.84C107.345 93.6587 106.817 93.4293 106.422 93.152L107.19 91.632C107.574 91.888 108.033 92.096 108.566 92.256C109.11 92.4053 109.643 92.48 110.166 92.48C111.361 92.48 111.958 92.1653 111.958 91.536C111.958 91.2373 111.803 91.0293 111.494 90.912C111.195 90.7947 110.71 90.6827 110.038 90.576C109.334 90.4693 108.758 90.3467 108.31 90.208C107.873 90.0693 107.489 89.8293 107.158 89.488C106.838 89.136 106.678 88.6507 106.678 88.032C106.678 87.2213 107.014 86.576 107.686 86.096C108.369 85.6053 109.286 85.36 110.438 85.36C111.025 85.36 111.611 85.4293 112.198 85.568C112.785 85.696 113.265 85.872 113.638 86.096L112.87 87.616C112.145 87.1893 111.329 86.976 110.422 86.976C109.835 86.976 109.387 87.0667 109.078 87.248C108.779 87.4187 108.63 87.648 108.63 87.936C108.63 88.256 108.79 88.4853 109.11 88.624C109.441 88.752 109.947 88.8747 110.63 88.992C111.313 89.0987 111.873 89.2213 112.31 89.36C112.747 89.4987 113.121 89.7333 113.43 90.064C113.75 90.3947 113.91 90.864 113.91 91.472C113.91 92.272 113.563 92.912 112.87 93.392C112.177 93.872 111.233 94.112 110.038 94.112Z" fill="#1A202C"/>
<path d="M63.9931 30L71.7756 38.2034C73.3147 39.8247 74.3631 41.8907 74.7881 44.1402C75.2131 46.3896 74.9957 48.7213 74.1634 50.8405C73.331 52.9596 71.9211 54.771 70.112 56.0454C68.3029 57.3198 66.1759 58 64 58C61.8241 58 59.6971 57.3198 57.888 56.0454C56.0789 54.771 54.669 52.9596 53.8366 50.8405C53.0043 48.7213 52.7869 46.3896 53.2119 44.1402C53.6369 41.8907 54.6853 39.8247 56.2244 38.2034L63.9931 30Z" stroke="#00CC96" stroke-width="2.5" stroke-linecap="round" stroke-linejoin="round"/>
</svg>
